<?xml version="1.0" encoding="UTF-8"?>
<svg width="122px" height="95px" viewBox="0 0 122 95" version="1.1" xmlns="http://www.w3.org/2000/svg" xmlns:xlink="http://www.w3.org/1999/xlink">
    <defs></defs>
    <g id="Page-1" stroke="none" stroke-width="1" fill="none" fill-rule="evenodd">
        <g id="Artboard-Copy-4" transform="translate(-24.000000, -38.000000)" fill="#FF9500">
            <path d="M110.641593,38 L146,132.469027 L24,132.469027 L27.9137168,120.727876 L59.4933628,38 L73.9336283,38 L84.3252212,66.880531 L96.2013274,38 L110.641593,38 Z M73.9336283,121.942478 L94.7168142,121.942478 L90.8030973,112.900442 L84.3252212,95.7610619 L73.9336283,121.942478 Z M67.3207965,47.3119469 L38.4402655,121.942478 L63.4070796,121.942478 L64.6216814,120.727876 L79.0619469,81.3207965 L75.1482301,70.7942478 L67.3207965,47.3119469 Z M130.210177,121.942478 L127.511062,112.900442 L119.683628,93.0619469 L111.856195,70.7942478 L102.679204,47.3119469 L89.5884956,81.3207965 L105.243363,121.942478 L130.210177,121.942478 Z" id="m"></path>
        </g>
    </g>
</svg>